<svg width="40" height="40" viewBox="0 0 40 40" fill="none" xmlns="http://www.w3.org/2000/svg">
<path fill-rule="evenodd" clip-rule="evenodd" d="M19.993 1C15.2746 1.00245 10.7109 2.6736 7.11804 5.71464C3.52513 8.75568 1.13726 12.9683 0.381404 17.5993C-0.374455 22.2302 0.550977 26.9775 2.99224 30.9922C5.43351 35.007 9.23141 38.0274 13.7068 39.5135C14.6942 39.6967 15.0661 39.0848 15.0661 38.5645C15.0661 38.0441 15.0463 36.5355 15.0397 34.8862C9.51058 36.0807 8.34223 32.553 8.34223 32.553C7.44044 30.2623 6.13714 29.6601 6.13714 29.6601C4.33357 28.4362 6.27209 28.4591 6.27209 28.4591C8.26983 28.5999 9.31971 30.4979 9.31971 30.4979C11.0904 33.5183 13.9701 32.6446 15.1023 32.1341C15.28 30.8546 15.7967 29.9841 16.3661 29.49C11.9493 28.9925 7.30879 27.2974 7.30879 19.725C7.28142 17.7611 8.01434 15.8619 9.35591 14.4203C9.15186 13.9229 8.47057 11.9136 9.55008 9.1844C9.55008 9.1844 11.2187 8.65427 15.0167 11.2101C18.2744 10.3242 21.7115 10.3242 24.9692 11.2101C28.7639 8.65427 30.4293 9.1844 30.4293 9.1844C31.5121 11.9071 30.8308 13.9164 30.6267 14.4203C31.9726 15.8621 32.707 17.7646 32.6771 19.7315C32.6771 27.3203 28.0267 28.9925 23.6034 29.4801C24.3143 30.0954 24.9495 31.2964 24.9495 33.142C24.9495 35.7862 24.9264 37.9132 24.9264 38.5645C24.9264 39.0913 25.2852 39.7066 26.2923 39.5135C30.7682 38.0273 34.5665 35.0063 37.0077 30.9908C39.4489 26.9754 40.3739 22.2274 39.6172 17.596C38.8604 12.9647 36.4714 8.75199 32.8773 5.71147C29.2832 2.67095 24.7185 1.0009 19.9995 1H19.993Z" fill="#191717"/>
<path d="M7.64403 29.3757C7.60125 29.4738 7.44327 29.5033 7.31491 29.4346C7.18656 29.3658 7.09112 29.2382 7.1372 29.1368C7.18327 29.0353 7.33796 29.0091 7.46631 29.0779C7.59467 29.1466 7.6934 29.2775 7.64403 29.3757Z" fill="#191717"/>
<path d="M8.45041 30.2689C8.38226 30.3031 8.30428 30.3126 8.22983 30.2959C8.15538 30.2792 8.0891 30.2373 8.04231 30.1773C7.91396 30.0399 7.88761 29.8501 7.98635 29.765C8.08508 29.6799 8.26282 29.7192 8.39118 29.8566C8.51953 29.9941 8.54915 30.1839 8.45041 30.2689Z" fill="#191717"/>
<path d="M9.23364 31.4044C9.11186 31.4895 8.90451 31.4044 8.78932 31.2342C8.75747 31.2037 8.73214 31.1671 8.71483 31.1266C8.69753 31.0861 8.6886 31.0426 8.6886 30.9986C8.6886 30.9546 8.69753 30.9111 8.71483 30.8706C8.73214 30.8301 8.75747 30.7935 8.78932 30.763C8.91109 30.6812 9.11845 30.763 9.23364 30.9299C9.34883 31.0968 9.35212 31.3193 9.23364 31.4044Z" fill="#191717"/>
<path d="M10.2968 32.5038C10.1881 32.6249 9.96764 32.5922 9.78662 32.4285C9.60561 32.2649 9.56281 32.0424 9.67142 31.9246C9.78003 31.8068 10.0005 31.8395 10.1881 31.9999C10.3757 32.1602 10.4119 32.386 10.2968 32.5038Z" fill="#191717"/>
<path d="M11.7876 33.1452C11.7382 33.299 11.5144 33.3677 11.2906 33.3023C11.0668 33.2368 10.9187 33.0536 10.9615 32.8965C11.0043 32.7394 11.2314 32.6674 11.4585 32.7394C11.6856 32.8114 11.8304 32.9849 11.7876 33.1452Z" fill="#191717"/>
<path d="M13.4136 33.2563C13.4136 33.4167 13.2293 33.5541 12.9924 33.5574C12.7554 33.5606 12.5612 33.4297 12.5612 33.2694C12.5612 33.109 12.7455 32.9716 12.9825 32.9683C13.2194 32.9651 13.4136 33.0927 13.4136 33.2563Z" fill="#191717"/>
<path d="M14.9274 33.0047C14.957 33.1651 14.7924 33.332 14.5555 33.3712C14.3185 33.4105 14.1111 33.3156 14.0815 33.1585C14.0519 33.0014 14.223 32.8313 14.4534 32.7887C14.6838 32.7462 14.8977 32.8444 14.9274 33.0047Z" fill="#191717"/>
</svg>
