<svg width="190" height="190" viewBox="0 0 190 190" fill="none" xmlns="http://www.w3.org/2000/svg">
<g clip-path="url(#clip0_16_509)">
<path d="M12.9545 166.286H43.1818V92.8768L0 60.4904V153.331C0 160.499 5.80795 166.286 12.9545 166.286Z" fill="#4285F4"/>
<path d="M146.818 166.286H177.045C184.214 166.286 190 160.478 190 153.331V60.4904L146.818 92.8768" fill="#34A853"/>
<path d="M146.818 36.7413V92.8777L190 60.4913V43.2186C190 27.1981 171.712 18.0652 158.909 27.6731" fill="#FBBC04"/>
<path d="M43.1818 92.8768V36.7404L95 75.604L146.818 36.7404V92.8768L95 131.74" fill="#EA4335"/>
<path d="M0 43.2186V60.4913L43.1818 92.8777V36.7413L31.0909 27.6731C18.2659 18.0652 0 27.1981 0 43.2186Z" fill="#C5221F"/>
</g>
<defs>
<clipPath id="clip0_16_509">
<rect width="190" height="190" fill="white"/>
</clipPath>
</defs>
</svg>
