<svg width="1280" height="1900" viewBox="0 0 1280 1900" fill="none" xmlns="http://www.w3.org/2000/svg">
<rect x="10" y="10" width="1260" height="1880" fill="white"/>
<rect x="10" y="10" width="1260" height="1880" stroke="#6B061C" stroke-width="20"/>
<path d="M564.614 902V756.545H615.466C625.598 756.545 633.955 758.297 640.537 761.801C647.118 765.258 652.019 769.921 655.239 775.793C658.458 781.616 660.068 788.08 660.068 795.182C660.068 801.432 658.955 806.593 656.73 810.665C654.552 814.737 651.664 817.956 648.065 820.324C644.514 822.691 640.655 824.443 636.489 825.58V827C640.939 827.284 645.414 828.847 649.912 831.688C654.41 834.528 658.174 838.6 661.205 843.903C664.235 849.206 665.75 855.693 665.75 863.364C665.75 870.655 664.093 877.213 660.778 883.037C657.464 888.861 652.232 893.477 645.082 896.886C637.933 900.295 628.629 902 617.17 902H564.614ZM582.227 886.375H617.17C628.676 886.375 636.844 884.15 641.673 879.699C646.55 875.201 648.989 869.756 648.989 863.364C648.989 858.439 647.734 853.894 645.224 849.727C642.715 845.513 639.14 842.152 634.5 839.642C629.86 837.085 624.367 835.807 618.023 835.807H582.227V886.375ZM582.227 820.466H614.898C620.201 820.466 624.983 819.424 629.244 817.341C633.553 815.258 636.962 812.322 639.472 808.534C642.028 804.746 643.307 800.295 643.307 795.182C643.307 788.79 641.081 783.368 636.631 778.918C632.18 774.42 625.125 772.17 615.466 772.17H582.227V820.466ZM564.614 1144V998.545H652.398V1014.17H582.227V1063.32H647.852V1078.94H582.227V1128.38H653.534V1144H564.614Z" fill="#7D9B4D"/>
</svg>
