<svg width="1280" height="1900" viewBox="0 0 1280 1900" fill="none" xmlns="http://www.w3.org/2000/svg">
<g clip-path="url(#clip0_1_97)">
<rect width="1280" height="1900" fill="white"/>
<path d="M581.614 418V272.545H668.83V288.17H599.227V337.318H662.295V352.943H599.227V418H581.614ZM677.068 514.545H694.682V610.852C694.682 620.795 692.338 629.673 687.651 637.486C683.01 645.251 676.453 651.383 667.977 655.881C659.502 660.331 649.559 662.557 638.148 662.557C626.737 662.557 616.794 660.331 608.318 655.881C599.843 651.383 593.261 645.251 588.574 637.486C583.934 629.673 581.614 620.795 581.614 610.852V514.545H599.227V609.432C599.227 616.534 600.79 622.855 603.915 628.395C607.04 633.887 611.491 638.22 617.267 641.392C623.091 644.517 630.051 646.08 638.148 646.08C646.244 646.08 653.205 644.517 659.028 641.392C664.852 638.22 669.303 633.887 672.381 628.395C675.506 622.855 677.068 616.534 677.068 609.432V514.545ZM573.659 772.17V756.545H682.75V772.17H637.011V902H619.398V772.17H573.659ZM677.068 998.545H694.682V1094.85C694.682 1104.8 692.338 1113.67 687.651 1121.49C683.01 1129.25 676.453 1135.38 667.977 1139.88C659.502 1144.33 649.559 1146.56 638.148 1146.56C626.737 1146.56 616.794 1144.33 608.318 1139.88C599.843 1135.38 593.261 1129.25 588.574 1121.49C583.934 1113.67 581.614 1104.8 581.614 1094.85V998.545H599.227V1093.43C599.227 1100.53 600.79 1106.86 603.915 1112.39C607.04 1117.89 611.491 1122.22 617.267 1125.39C623.091 1128.52 630.051 1130.08 638.148 1130.08C646.244 1130.08 653.205 1128.52 659.028 1125.39C664.852 1122.22 669.303 1117.89 672.381 1112.39C675.506 1106.86 677.068 1100.53 677.068 1093.43V998.545ZM581.614 1386V1240.55H630.761C642.125 1240.55 651.453 1242.49 658.744 1246.37C666.036 1250.2 671.434 1255.48 674.938 1262.21C678.441 1268.93 680.193 1276.58 680.193 1285.15C680.193 1293.72 678.441 1301.32 674.938 1307.95C671.434 1314.57 666.06 1319.78 658.815 1323.57C651.571 1327.31 642.314 1329.18 631.045 1329.18H591.273V1313.27H630.477C638.242 1313.27 644.492 1312.14 649.227 1309.86C654.009 1307.59 657.466 1304.37 659.597 1300.2C661.775 1295.99 662.864 1290.97 662.864 1285.15C662.864 1279.32 661.775 1274.23 659.597 1269.88C657.419 1265.52 653.938 1262.16 649.156 1259.79C644.374 1257.38 638.053 1256.17 630.193 1256.17H599.227V1386H581.614ZM650.08 1320.66L685.875 1386H665.42L630.193 1320.66H650.08ZM581.614 1628V1482.55H669.398V1498.17H599.227V1547.32H664.852V1562.94H599.227V1612.38H670.534V1628H581.614Z" fill="#7D9B4D"/>
</g>
<rect x="10" y="10" width="1260" height="1880" stroke="#6B061C" stroke-width="20"/>
<defs>
<clipPath id="clip0_1_97">
<rect width="1280" height="1900" fill="white"/>
</clipPath>
</defs>
</svg>
