<svg width="1280" height="1900" viewBox="0 0 1280 1900" fill="none" xmlns="http://www.w3.org/2000/svg">
<rect x="10" y="10" width="1260" height="1880" fill="white"/>
<rect x="10" y="10" width="1260" height="1880" stroke="#6B061C" stroke-width="20"/>
<path d="M564.614 660V514.545H582.227V579.318H659.784V514.545H677.398V660H659.784V594.943H582.227V660H564.614ZM564.614 902V756.545H652.398V772.17H582.227V821.318H647.852V836.943H582.227V886.375H653.534V902H564.614ZM564.614 1144V998.545H613.761C625.125 998.545 634.453 1000.49 641.744 1004.37C649.036 1008.2 654.434 1013.48 657.938 1020.21C661.441 1026.93 663.193 1034.58 663.193 1043.15C663.193 1051.72 661.441 1059.32 657.938 1065.95C654.434 1072.57 649.06 1077.78 641.815 1081.57C634.571 1085.31 625.314 1087.18 614.045 1087.18H574.273V1071.27H613.477C621.242 1071.27 627.492 1070.14 632.227 1067.86C637.009 1065.59 640.466 1062.37 642.597 1058.2C644.775 1053.99 645.864 1048.97 645.864 1043.15C645.864 1037.32 644.775 1032.23 642.597 1027.88C640.419 1023.52 636.938 1020.16 632.156 1017.79C627.374 1015.38 621.053 1014.17 613.193 1014.17H582.227V1144H564.614ZM633.08 1078.66L668.875 1144H648.42L613.193 1078.66H633.08ZM564.614 1386V1240.55H652.398V1256.17H582.227V1305.32H647.852V1320.94H582.227V1370.38H653.534V1386H564.614Z" fill="#7D9B4D"/>
</svg>
