<svg width="1280" height="1900" viewBox="0 0 1280 1900" fill="none" xmlns="http://www.w3.org/2000/svg">
<g clip-path="url(#clip0_1_97)">
<rect width="1280" height="1900" fill="white"/>
<path d="M599.227 272.545V418H581.614V272.545H599.227ZM696.955 514.545V660H679.909L600.648 545.795H599.227V660H581.614V514.545H598.659L678.205 629.034H679.625V514.545H696.955ZM573.659 1014.17V998.545H682.75V1014.17H637.011V1144H619.398V1014.17H573.659ZM581.614 1386V1240.55H599.227V1305.32H676.784V1240.55H694.398V1386H676.784V1320.94H599.227V1386H581.614ZM581.614 1628V1482.55H669.398V1498.17H599.227V1547.32H664.852V1562.94H599.227V1612.38H670.534V1628H581.614Z" fill="#7D9B4D"/>
</g>
<rect x="10" y="10" width="1260" height="1880" stroke="#6B061C" stroke-width="20"/>
<defs>
<clipPath id="clip0_1_97">
<rect width="1280" height="1900" fill="white"/>
</clipPath>
</defs>
</svg>
