<svg width="1280" height="1900" viewBox="0 0 1280 1900" fill="none" xmlns="http://www.w3.org/2000/svg">
<g clip-path="url(#clip0_1_97)">
<rect width="1280" height="1900" fill="white"/>
<path d="M574.33 274V172.182H608.733C616.721 172.182 623.25 173.624 628.321 176.507C633.425 179.357 637.204 183.219 639.656 188.091C642.109 192.963 643.335 198.399 643.335 204.398C643.335 210.397 642.109 215.849 639.656 220.754C637.237 225.66 633.491 229.571 628.42 232.487C623.349 235.371 616.853 236.812 608.932 236.812H584.273V225.875H608.534C614.003 225.875 618.394 224.93 621.709 223.041C625.023 221.152 627.426 218.6 628.918 215.385C630.442 212.137 631.205 208.474 631.205 204.398C631.205 200.321 630.442 196.675 628.918 193.46C627.426 190.245 625.007 187.726 621.659 185.903C618.312 184.047 613.87 183.119 608.335 183.119H586.659V274H574.33ZM660.239 392.091C660.239 402.83 658.3 412.11 654.422 419.932C650.544 427.754 645.224 433.786 638.463 438.028C631.702 442.271 623.979 444.392 615.295 444.392C606.612 444.392 598.889 442.271 592.128 438.028C585.366 433.786 580.047 427.754 576.169 419.932C572.291 412.11 570.352 402.83 570.352 392.091C570.352 381.352 572.291 372.072 576.169 364.25C580.047 356.428 585.366 350.396 592.128 346.153C598.889 341.911 606.612 339.79 615.295 339.79C623.979 339.79 631.702 341.911 638.463 346.153C645.224 350.396 650.544 356.428 654.422 364.25C658.3 372.072 660.239 381.352 660.239 392.091ZM648.307 392.091C648.307 383.275 646.832 375.834 643.882 369.768C640.965 363.703 637.005 359.113 632 355.997C627.028 352.882 621.46 351.324 615.295 351.324C609.131 351.324 603.546 352.882 598.541 355.997C593.57 359.113 589.609 363.703 586.659 369.768C583.742 375.834 582.284 383.275 582.284 392.091C582.284 400.907 583.742 408.348 586.659 414.413C589.609 420.479 593.57 425.069 598.541 428.185C603.546 431.3 609.131 432.858 615.295 432.858C621.46 432.858 627.028 431.3 632 428.185C637.005 425.069 640.965 420.479 643.882 414.413C646.832 408.348 648.307 400.907 648.307 392.091ZM574.33 612V510.182H608.733C616.688 510.182 623.217 511.541 628.321 514.259C633.425 516.943 637.204 520.639 639.656 525.345C642.109 530.052 643.335 535.404 643.335 541.403C643.335 547.402 642.109 552.722 639.656 557.362C637.204 562.002 633.442 565.648 628.371 568.3C623.3 570.918 616.82 572.227 608.932 572.227H581.091V561.091H608.534C613.97 561.091 618.345 560.295 621.659 558.705C625.007 557.114 627.426 554.86 628.918 551.943C630.442 548.993 631.205 545.48 631.205 541.403C631.205 537.327 630.442 533.764 628.918 530.714C627.393 527.665 624.957 525.312 621.609 523.655C618.262 521.964 613.837 521.119 608.335 521.119H586.659V612H574.33ZM622.256 566.261L647.312 612H632.994L608.335 566.261H622.256ZM568.761 690.119V679.182H645.125V690.119H613.108V781H600.778V690.119H568.761ZM574.33 950V848.182H635.381V859.119H586.659V893.523H630.807V904.46H586.659V950H574.33ZM660.239 1068.09C660.239 1078.83 658.3 1088.11 654.422 1095.93C650.544 1103.75 645.224 1109.79 638.463 1114.03C631.702 1118.27 623.979 1120.39 615.295 1120.39C606.612 1120.39 598.889 1118.27 592.128 1114.03C585.366 1109.79 580.047 1103.75 576.169 1095.93C572.291 1088.11 570.352 1078.83 570.352 1068.09C570.352 1057.35 572.291 1048.07 576.169 1040.25C580.047 1032.43 585.366 1026.4 592.128 1022.15C598.889 1017.91 606.612 1015.79 615.295 1015.79C623.979 1015.79 631.702 1017.91 638.463 1022.15C645.224 1026.4 650.544 1032.43 654.422 1040.25C658.3 1048.07 660.239 1057.35 660.239 1068.09ZM648.307 1068.09C648.307 1059.27 646.832 1051.83 643.882 1045.77C640.965 1039.7 637.005 1035.11 632 1032C627.028 1028.88 621.46 1027.32 615.295 1027.32C609.131 1027.32 603.546 1028.88 598.541 1032C593.57 1035.11 589.609 1039.7 586.659 1045.77C583.742 1051.83 582.284 1059.27 582.284 1068.09C582.284 1076.91 583.742 1084.35 586.659 1090.41C589.609 1096.48 593.57 1101.07 598.541 1104.18C603.546 1107.3 609.131 1108.86 615.295 1108.86C621.46 1108.86 627.028 1107.3 632 1104.18C637.005 1101.07 640.965 1096.48 643.882 1090.41C646.832 1084.35 648.307 1076.91 648.307 1068.09ZM574.33 1288V1186.18H586.659V1277.06H633.989V1288H574.33ZM586.659 1355.18V1457H574.33V1355.18H586.659ZM660.239 1575.09C660.239 1585.83 658.3 1595.11 654.422 1602.93C650.544 1610.75 645.224 1616.79 638.463 1621.03C631.702 1625.27 623.979 1627.39 615.295 1627.39C606.612 1627.39 598.889 1625.27 592.128 1621.03C585.366 1616.79 580.047 1610.75 576.169 1602.93C572.291 1595.11 570.352 1585.83 570.352 1575.09C570.352 1564.35 572.291 1555.07 576.169 1547.25C580.047 1539.43 585.366 1533.4 592.128 1529.15C598.889 1524.91 606.612 1522.79 615.295 1522.79C623.979 1522.79 631.702 1524.91 638.463 1529.15C645.224 1533.4 650.544 1539.43 654.422 1547.25C658.3 1555.07 660.239 1564.35 660.239 1575.09ZM648.307 1575.09C648.307 1566.27 646.832 1558.83 643.882 1552.77C640.965 1546.7 637.005 1542.11 632 1539C627.028 1535.88 621.46 1534.32 615.295 1534.32C609.131 1534.32 603.546 1535.88 598.541 1539C593.57 1542.11 589.609 1546.7 586.659 1552.77C583.742 1558.83 582.284 1566.27 582.284 1575.09C582.284 1583.91 583.742 1591.35 586.659 1597.41C589.609 1603.48 593.57 1608.07 598.541 1611.18C603.546 1614.3 609.131 1615.86 615.295 1615.86C621.46 1615.86 627.028 1614.3 632 1611.18C637.005 1608.07 640.965 1603.48 643.882 1597.41C646.832 1591.35 648.307 1583.91 648.307 1575.09Z" fill="#7D9B4D"/>
</g>
<rect x="10" y="10" width="1260" height="1880" stroke="#6B061C" stroke-width="20"/>
<defs>
<clipPath id="clip0_1_97">
<rect width="1280" height="1900" fill="white"/>
</clipPath>
</defs>
</svg>
