<svg width="1280" height="1900" viewBox="0 0 1280 1900" fill="none" xmlns="http://www.w3.org/2000/svg">
<rect x="10" y="10" width="1260" height="1880" fill="white"/>
<rect x="10" y="10" width="1260" height="1880" stroke="#6B061C" stroke-width="20"/>
<path d="M399.594 491V345.545H417.208V410.318H494.765V345.545H512.378V491H494.765V425.943H417.208V491H399.594ZM547.641 491V345.545H635.425V361.17H565.255V410.318H630.88V425.943H565.255V475.375H636.561V491H547.641ZM667.172 491V345.545H716.32C727.684 345.545 737.011 347.487 744.303 351.369C751.595 355.205 756.992 360.484 760.496 367.207C764 373.931 765.752 381.578 765.752 390.148C765.752 398.718 764 406.317 760.496 412.946C756.992 419.575 751.618 424.783 744.374 428.571C737.13 432.312 727.873 434.182 716.604 434.182H676.831V418.273H716.036C723.801 418.273 730.051 417.136 734.786 414.864C739.568 412.591 743.025 409.371 745.155 405.205C747.333 400.991 748.422 395.972 748.422 390.148C748.422 384.324 747.333 379.234 745.155 374.878C742.977 370.522 739.497 367.16 734.715 364.793C729.933 362.378 723.612 361.17 715.752 361.17H684.786V491H667.172ZM735.638 425.659L771.434 491H750.979L715.752 425.659H735.638ZM795.102 491V345.545H882.886V361.17H812.716V410.318H878.341V425.943H812.716V475.375H884.022V491H795.102ZM449.647 733L409.875 587.545H427.772L458.17 706.011H459.591L490.556 587.545H510.443L541.409 706.011H542.829L573.227 587.545H591.125L551.352 733H533.17L501.068 617.091H499.931L467.829 733H449.647ZM630.684 587.545V733H613.071V587.545H630.684ZM666 733V587.545H683.614V717.375H751.228V733H666ZM778.5 733V587.545H796.114V717.375H863.728V733H778.5ZM532.309 975V829.545H583.161C593.294 829.545 601.651 831.297 608.232 834.801C614.814 838.258 619.714 842.921 622.934 848.793C626.154 854.616 627.763 861.08 627.763 868.182C627.763 874.432 626.651 879.593 624.425 883.665C622.247 887.737 619.359 890.956 615.761 893.324C612.21 895.691 608.351 897.443 604.184 898.58V900C608.635 900.284 613.109 901.847 617.607 904.688C622.105 907.528 625.87 911.6 628.9 916.903C631.93 922.206 633.445 928.693 633.445 936.364C633.445 943.655 631.788 950.213 628.474 956.037C625.159 961.861 619.927 966.477 612.778 969.886C605.628 973.295 596.324 975 584.866 975H532.309ZM549.923 959.375H584.866C596.371 959.375 604.539 957.15 609.369 952.699C614.246 948.201 616.684 942.756 616.684 936.364C616.684 931.439 615.429 926.894 612.92 922.727C610.41 918.513 606.835 915.152 602.195 912.642C597.555 910.085 592.063 908.807 585.718 908.807H549.923V959.375ZM549.923 893.466H582.593C587.896 893.466 592.678 892.424 596.94 890.341C601.248 888.258 604.657 885.322 607.167 881.534C609.724 877.746 611.002 873.295 611.002 868.182C611.002 861.79 608.777 856.368 604.326 851.918C599.875 847.42 592.82 845.17 583.161 845.17H549.923V893.466ZM662.387 975V829.545H750.171V845.17H680.001V894.318H745.626V909.943H680.001V959.375H751.308V975H662.387ZM501.645 1071.55H522.668L572.099 1192.28H573.804L623.236 1071.55H644.259V1217H627.781V1106.49H626.361L580.906 1217H564.997L519.543 1106.49H518.122V1217H501.645V1071.55ZM667.075 1071.55H687.245L727.586 1139.44H729.29L769.631 1071.55H789.802L737.245 1157.06V1217H719.631V1157.06L667.075 1071.55ZM246.762 1459V1313.55H295.91C307.273 1313.55 316.601 1315.49 323.893 1319.37C331.184 1323.2 336.582 1328.48 340.086 1335.21C343.59 1341.93 345.342 1349.58 345.342 1358.15C345.342 1366.72 343.59 1374.32 340.086 1380.95C336.582 1387.57 331.208 1392.78 323.964 1396.57C316.719 1400.31 307.463 1402.18 296.194 1402.18H256.421V1386.27H295.626C303.391 1386.27 309.641 1385.14 314.376 1382.86C319.158 1380.59 322.614 1377.37 324.745 1373.2C326.923 1368.99 328.012 1363.97 328.012 1358.15C328.012 1352.32 326.923 1347.23 324.745 1342.88C322.567 1338.52 319.087 1335.16 314.305 1332.79C309.522 1330.38 303.201 1329.17 295.342 1329.17H264.376V1459H246.762ZM315.228 1393.66L351.023 1459H330.569L295.342 1393.66H315.228ZM374.692 1459V1313.55H462.476V1329.17H392.305V1378.32H457.93V1393.94H392.305V1443.38H463.612V1459H374.692ZM573.768 1349.91C572.916 1342.71 569.46 1337.12 563.399 1333.15C557.339 1329.17 549.905 1327.18 541.098 1327.18C534.659 1327.18 529.024 1328.22 524.195 1330.31C519.412 1332.39 515.672 1335.25 512.973 1338.9C510.321 1342.55 508.996 1346.69 508.996 1351.33C508.996 1355.21 509.919 1358.55 511.766 1361.34C513.66 1364.09 516.074 1366.39 519.01 1368.23C521.946 1370.03 525.023 1371.52 528.243 1372.71C531.463 1373.84 534.422 1374.77 537.121 1375.48L551.893 1379.45C555.681 1380.45 559.895 1381.82 564.536 1383.57C569.223 1385.33 573.697 1387.72 577.959 1390.75C582.268 1393.73 585.819 1397.57 588.612 1402.25C591.406 1406.94 592.803 1412.69 592.803 1419.51C592.803 1427.37 590.743 1434.47 586.624 1440.82C582.552 1447.16 576.586 1452.21 568.726 1455.95C560.913 1459.69 551.42 1461.56 540.246 1461.56C529.829 1461.56 520.809 1459.88 513.186 1456.51C505.61 1453.15 499.644 1448.46 495.288 1442.45C490.98 1436.44 488.541 1429.45 487.973 1421.5H506.155C506.628 1426.99 508.475 1431.54 511.695 1435.14C514.962 1438.69 519.081 1441.34 524.053 1443.09C529.071 1444.8 534.469 1445.65 540.246 1445.65C546.969 1445.65 553.006 1444.56 558.357 1442.38C563.707 1440.16 567.945 1437.08 571.07 1433.15C574.195 1429.17 575.757 1424.53 575.757 1419.23C575.757 1414.4 574.408 1410.47 571.709 1407.44C569.01 1404.41 565.459 1401.95 561.055 1400.05C556.652 1398.16 551.893 1396.5 546.78 1395.08L528.882 1389.97C517.518 1386.7 508.522 1382.04 501.893 1375.97C495.265 1369.91 491.95 1361.98 491.95 1352.18C491.95 1344.04 494.152 1336.94 498.555 1330.88C503.006 1324.77 508.972 1320.03 516.453 1316.67C523.982 1313.26 532.386 1311.56 541.666 1311.56C551.041 1311.56 559.375 1313.24 566.666 1316.6C573.958 1319.91 579.734 1324.46 583.996 1330.24C588.304 1336.01 590.577 1342.57 590.814 1349.91H573.768ZM717.217 1313.55H734.83V1409.85C734.83 1419.8 732.487 1428.67 727.799 1436.49C723.159 1444.25 716.601 1450.38 708.126 1454.88C699.65 1459.33 689.707 1461.56 678.296 1461.56C666.885 1461.56 656.942 1459.33 648.467 1454.88C639.991 1450.38 633.41 1444.25 628.722 1436.49C624.082 1428.67 621.762 1419.8 621.762 1409.85V1313.55H639.376V1408.43C639.376 1415.53 640.938 1421.86 644.063 1427.39C647.188 1432.89 651.639 1437.22 657.415 1440.39C663.239 1443.52 670.2 1445.08 678.296 1445.08C686.393 1445.08 693.353 1443.52 699.177 1440.39C705.001 1437.22 709.451 1432.89 712.529 1427.39C715.654 1421.86 717.217 1415.53 717.217 1408.43V1313.55ZM770.004 1313.55H791.027L840.459 1434.28H842.163L891.595 1313.55H912.618V1459H896.141V1348.49H894.72L849.266 1459H833.357L787.902 1348.49H786.482V1459H770.004V1313.55ZM947.934 1459V1313.55H1035.72V1329.17H965.548V1378.32H1031.17V1393.94H965.548V1443.38H1036.85V1459H947.934Z" fill="#7D9B4D"/>
</svg>
